<svg width="167" height="74" viewBox="0 0 167 74" fill="none" xmlns="http://www.w3.org/2000/svg">
<g clip-path="url(#clip0_1047_418)">
<path d="M14.5195 50.9522C19.1832 48.4571 19.4181 45.9888 19.4181 40.5278V34.939C19.4181 29.6864 19.0423 29.8881 15.3315 29.303V28.4893H27.0611V29.303C23.0618 29.6528 23.2363 30.9844 23.2363 34.939V41.7182C23.0886 47.6971 22.4847 48.9749 14.8953 51.766L14.5195 50.9522Z" fill="#5F7A9C"/>
<path d="M39.8044 34.354H38.9321C38.3818 31.9732 37.6839 29.3301 34.7045 29.3301C32.9397 29.3301 31.752 30.6348 31.752 32.3498C31.752 37.0509 41.2807 36.7348 41.2807 42.8011C41.2807 46.9843 37.2813 48.7262 33.5772 48.7262C31.5171 48.7262 29.4906 48.1747 27.699 47.2466L26.7461 41.4964L27.6453 41.3215C28.6049 44.1664 30.7186 47.3879 34.1342 47.3879C36.0466 47.3879 37.4692 46.1369 37.4692 44.2538C37.4692 39.3442 27.9405 39.7545 27.9405 34.0042C27.9405 30.1438 31.6178 27.9917 35.1541 27.9917C36.8921 27.9917 38.6032 28.4289 40.0795 29.2964L39.8178 34.3472L39.8044 34.354Z" fill="#5F7A9C"/>
<path d="M42.4023 34.0983L43.0667 27.5679H43.6773C43.9658 28.0925 44.3752 28.3547 44.8046 28.4422C45.2677 28.5296 45.7642 28.5027 46.2809 28.5027H57.2523C58.2924 28.5027 59.2788 28.6507 59.8626 27.5746H60.4733L61.1376 34.105L60.3256 34.253C59.1648 30.1303 57.6683 29.7267 53.6757 29.7267V41.8056C53.6757 47.0582 54.0515 46.8564 58.024 47.4415V48.2553H45.5092V47.4415C49.475 46.8632 49.8575 47.0649 49.8575 41.8056V29.7267C45.8582 29.7267 44.4087 30.1303 43.221 34.253L42.4091 34.105L42.4023 34.0983Z" fill="#4B4846"/>
<path d="M98.5127 45.9688H100.076V46.6346C97.0029 47.9124 93.6746 48.7262 90.3396 48.7262C84.3405 48.7262 78.8984 44.9533 78.8984 38.6784C78.8984 31.684 85.0115 27.9917 91.2991 27.9917C93.8759 27.9917 96.2849 28.6037 98.6872 29.5318V35.0803H97.8149C96.9425 31.6234 94.6006 29.3301 90.8026 29.3301C86.1657 29.3301 83.589 33.3653 83.589 37.636C83.589 42.976 87.0649 47.3946 92.5405 47.3946C94.6006 47.3946 94.5134 46.9036 94.6878 45.6796V44.1731C94.6878 40.4001 94.4865 40.1378 90.4872 39.5864V38.7726H100.714V39.5864C98.7409 40.0773 98.5127 40.427 98.5127 42.4581V45.9688Z" fill="#4B4846"/>
<path d="M108.136 27.7628L108.022 31.2466V44.5764C108.022 46.9572 108.022 46.8967 110.223 47.5356V48.2351H102.398V47.5356C104.599 46.9572 104.599 46.8698 104.599 44.5764V32.6119C104.599 30.5808 104.599 31.0448 102.861 29.767V29.303L107.552 27.3257L108.129 27.7628H108.136Z" fill="#4B4846"/>
<path d="M111.465 41.9602C111.465 37.6896 115.028 34.9927 119.168 34.9927C123.309 34.9927 126.644 37.6627 126.644 41.7585C126.644 45.8543 123.168 48.6386 119.115 48.6386C115.062 48.6386 111.465 46.1973 111.465 41.9602ZM122.819 42.1351C122.819 39.6938 121.832 36.0351 118.933 36.0351C116.357 36.0351 115.283 39.4046 115.283 41.6105C115.283 43.9644 116.41 47.5894 119.336 47.5894C122.06 47.5894 122.812 44.22 122.812 42.1284L122.819 42.1351Z" fill="#4B4846"/>
<path d="M133.513 27.7628L133.399 31.2466V36.4992C134.788 35.8334 136.351 34.9927 137.948 34.9927C141.196 34.9927 143.8 38.0393 143.8 41.1465C143.8 45.9081 139.512 48.6386 135.049 48.6386C133.284 48.6386 131.546 48.114 129.976 47.3339V32.6119C129.976 30.5808 129.976 31.0448 128.238 29.767V29.303L132.929 27.3257L133.506 27.7628H133.513ZM133.399 42.8883C133.399 45.7063 134.439 47.4213 136.559 47.4213C139.169 47.4213 140.21 45.0405 140.21 42.8345C140.21 39.7005 138.411 36.97 135.022 36.97C134.472 36.97 133.922 37.1179 133.399 37.2592V42.8883Z" fill="#4B4846"/>
<path d="M152.719 41.0321C152.719 38.7993 152.692 36.7951 150.196 36.7951C148.746 36.7951 148.894 37.8106 148.894 38.9136V39.4046L146.458 39.5794C146.169 39.5794 145.733 39.5794 145.733 39.2297C145.733 38.1873 149.82 34.9927 152.538 34.9927C155.785 34.9927 156.128 38.4765 156.128 41.0926V44.6033C156.128 46.4595 156.477 46.4326 158.503 47.0985V47.7374C157.429 47.9728 155.926 48.6386 154.853 48.6386C153.638 48.6386 153.141 48.114 152.88 47.0447C151.632 47.9459 150.477 48.6386 148.854 48.6386C147.002 48.6386 145.727 47.2128 145.727 45.4171C145.727 44.8925 145.814 44.4016 145.988 43.877L152.712 41.0321H152.719ZM149.531 43.5004C149.444 43.9644 149.33 44.3747 149.33 44.8051C149.33 45.9686 149.853 46.9572 151.155 46.9572C151.82 46.9572 152.256 46.7218 152.719 46.3788V41.819L149.531 43.5004Z" fill="#4B4846"/>
<path d="M164.917 27.7628L164.803 31.2466V44.5764C164.803 46.9572 164.803 46.8967 167.004 47.5356V48.2351H159.18V47.5356C161.381 46.9572 161.381 46.8698 161.381 44.5764V32.6119C161.381 30.5808 161.381 31.0448 159.643 29.767V29.303L164.333 27.3257L164.91 27.7628H164.917Z" fill="#4B4846"/>
<path d="M41.7435 7.6132C57.8952 7.6132 71.2018 19.7862 73.0472 35.4767C73.2015 34.219 73.282 32.9345 73.282 31.6365C73.282 14.1638 59.1434 0 41.7099 0C24.2765 0 10.1445 14.1638 10.1445 31.6365C10.1445 33.0152 10.2385 34.367 10.4062 35.6986C12.1509 19.9006 25.5112 7.6132 41.7435 7.6132Z" fill="url(#paint0_linear_1047_418)"/>
<path d="M10.7968 48.5171C2.72428 34.5013 6.58943 16.8605 19.225 7.41797C18.0641 7.91565 16.9166 8.48731 15.7893 9.13296C0.691051 17.8693 -4.48261 37.2184 4.2341 52.3506C12.9508 67.4829 32.2564 72.6682 47.3547 63.9318C48.5424 63.2458 49.6698 62.4859 50.73 61.6721C36.2088 68.0545 18.9096 62.6069 10.7901 48.5171H10.7968Z" fill="url(#paint1_linear_1047_418)"/>
<path d="M61.6264 54.3953C53.5472 68.4178 36.3754 73.8789 21.8945 67.6377C22.9078 68.3977 23.9747 69.1105 25.0954 69.7629C40.1936 78.4993 59.4992 73.3139 68.2159 58.1817C76.9327 43.0495 71.759 23.7004 56.6608 14.964C55.473 14.278 54.2517 13.6795 53.017 13.1616C65.7935 22.5772 69.7325 40.3189 61.6197 54.402L61.6264 54.3953Z" fill="url(#paint2_linear_1047_418)"/>
</g>
<defs>
<linearGradient id="paint0_linear_1047_418" x1="73.282" y1="17.8493" x2="10.1445" y2="17.8493" gradientUnits="userSpaceOnUse">
<stop stop-color="#5F7A9C" stop-opacity="0.35"/>
<stop offset="0.3" stop-color="#5F7A9C" stop-opacity="0.61"/>
<stop offset="0.59" stop-color="#5F7A9C" stop-opacity="0.82"/>
<stop offset="0.84" stop-color="#5F7A9C" stop-opacity="0.95"/>
<stop offset="1" stop-color="#5F7A9C"/>
</linearGradient>
<linearGradient id="paint1_linear_1047_418" x1="1.08377" y1="26.1784" x2="53.7209" y2="56.4972" gradientUnits="userSpaceOnUse">
<stop stop-color="#5F7A9C" stop-opacity="0.35"/>
<stop offset="0.3" stop-color="#5F7A9C" stop-opacity="0.61"/>
<stop offset="0.59" stop-color="#5F7A9C" stop-opacity="0.82"/>
<stop offset="0.84" stop-color="#5F7A9C" stop-opacity="0.95"/>
<stop offset="1" stop-color="#5F7A9C"/>
</linearGradient>
<linearGradient id="paint2_linear_1047_418" x1="21.8965" y1="43.5814" x2="72.4576" y2="43.5768" gradientUnits="userSpaceOnUse">
<stop stop-color="#5F7A9C" stop-opacity="0.35"/>
<stop offset="0.3" stop-color="#5F7A9C" stop-opacity="0.61"/>
<stop offset="0.59" stop-color="#5F7A9C" stop-opacity="0.82"/>
<stop offset="0.84" stop-color="#5F7A9C" stop-opacity="0.95"/>
<stop offset="1" stop-color="#5F7A9C"/>
</linearGradient>
<clipPath id="clip0_1047_418">
<rect width="167" height="74" fill="white"/>
</clipPath>
</defs>
</svg>
