<svg width="74" height="73" viewBox="0 0 74 73" fill="none" xmlns="http://www.w3.org/2000/svg">
<path d="M41.7435 7.51031C57.8952 7.51031 71.2018 19.5189 73.0472 34.9973C73.2015 33.7566 73.282 32.4894 73.282 31.2089C73.282 13.9724 59.1434 0 41.7099 0C24.2765 0 10.1445 13.9724 10.1445 31.2089C10.1445 32.569 10.2385 33.9026 10.4062 35.2162C12.1509 19.6316 25.5112 7.51031 41.7435 7.51031Z" fill="white"/>
<path d="M10.7968 47.8621C2.72428 34.0357 6.58943 16.6333 19.225 7.31836C18.0641 7.80932 16.9166 8.37325 15.7893 9.01017C0.691051 17.6285 -4.48262 36.7161 4.2341 51.6438C12.9508 66.5716 32.2565 71.6868 47.3547 63.0685C48.5424 62.3918 49.6698 61.6421 50.73 60.8393C36.2088 67.1355 18.9096 61.7615 10.7901 47.8621H10.7968Z" fill="white"/>
<path d="M61.6303 53.6598C53.5511 67.4929 36.3793 72.8801 21.8984 66.7233C22.9117 67.473 23.9786 68.1763 25.0993 68.8198C40.1975 77.4381 59.5031 72.3228 68.2199 57.3951C76.9366 42.4674 71.7629 23.3797 56.6647 14.7615C55.4769 14.0847 54.2557 13.4943 53.021 12.9834C65.7974 22.2718 69.7364 39.7737 61.6236 53.6665L61.6303 53.6598Z" fill="white"/>
</svg>
