<svg width="167" height="73" viewBox="0 0 167 73" fill="none" xmlns="http://www.w3.org/2000/svg">
<g clip-path="url(#clip0_936_1237)">
<path d="M14.5234 50.2629C19.1871 47.8015 19.422 45.3666 19.422 39.9794V34.4661C19.422 29.2845 19.0462 29.4835 15.3354 28.9063V28.1035H27.065V28.9063C23.0657 29.2513 23.2402 30.5649 23.2402 34.4661V41.1537C23.0925 47.0518 22.4886 48.3124 14.8992 51.0657L14.5234 50.2629Z" fill="white"/>
<path d="M39.8044 33.8896H38.9321C38.3818 31.5409 37.6839 28.9336 34.7045 28.9336C32.9397 28.9336 31.752 30.2207 31.752 31.9125C31.752 36.55 41.2807 36.2382 41.2807 42.2226C41.2807 46.3493 37.2813 48.0676 33.5772 48.0676C31.5171 48.0676 29.4906 47.5236 27.699 46.608L26.7461 40.9355L27.6453 40.763C28.6049 43.5694 30.7186 46.7473 34.1342 46.7473C36.0466 46.7473 37.4692 45.5133 37.4692 43.6556C37.4692 38.8124 27.9405 39.2171 27.9405 33.5446C27.9405 29.7363 31.6178 27.6133 35.1541 27.6133C36.8921 27.6133 38.6032 28.0445 40.0795 28.9004L39.8178 33.8829L39.8044 33.8896Z" fill="white"/>
<path d="M42.4023 33.6375L43.0667 27.1953H43.6773C43.9658 27.7128 44.3752 27.9716 44.8046 28.0578C45.2677 28.1441 45.7642 28.1175 46.2809 28.1175H57.2523C58.2924 28.1175 59.2788 28.2635 59.8626 27.2019H60.4733L61.1376 33.6441L60.3256 33.7901C59.1648 29.7231 57.6683 29.325 53.6757 29.325V41.2407C53.6757 46.4222 54.0515 46.2232 58.024 46.8004V47.6032H45.5092V46.8004C49.475 46.2298 49.8575 46.4289 49.8575 41.2407V29.325C45.8582 29.325 44.4087 29.7231 43.221 33.7901L42.4091 33.6441L42.4023 33.6375Z" fill="white"/>
<path d="M98.5166 45.3474H100.08V46.0043C97.0068 47.2648 93.6785 48.0676 90.3435 48.0676C84.3444 48.0676 78.9023 44.3456 78.9023 38.1556C78.9023 31.2557 85.0155 27.6133 91.303 27.6133C93.8798 27.6133 96.2888 28.217 98.6911 29.1326V34.6061H97.8188C96.9464 31.1959 94.6045 28.9336 90.8065 28.9336C86.1696 28.9336 83.5929 32.9143 83.5929 37.1272C83.5929 42.3951 87.0688 46.754 92.5444 46.754C94.6045 46.754 94.5173 46.2696 94.6917 45.0622V43.576C94.6917 39.854 94.4904 39.5953 90.4911 39.0513V38.2485H100.718V39.0513C98.7448 39.5356 98.5166 39.8806 98.5166 41.8842V45.3474Z" fill="white"/>
<path d="M108.136 27.3873L108.022 30.824V43.9737C108.022 46.3223 108.022 46.2626 110.223 46.8929V47.5829H102.398V46.8929C104.599 46.3223 104.599 46.2361 104.599 43.9737V32.1708C104.599 30.1672 104.599 30.625 102.861 29.3644V28.9066L107.552 26.9561L108.129 27.3873H108.136Z" fill="white"/>
<path d="M111.469 41.3929C111.469 37.18 115.032 34.5195 119.172 34.5195C123.312 34.5195 126.648 37.1535 126.648 41.1939C126.648 45.2343 123.172 47.981 119.119 47.981C115.065 47.981 111.469 45.5727 111.469 41.3929ZM122.823 41.5654C122.823 39.1571 121.836 35.5479 118.937 35.5479C116.361 35.5479 115.287 38.8718 115.287 41.0479C115.287 43.37 116.414 46.9461 119.34 46.9461C122.064 46.9461 122.816 43.6221 122.816 41.5588L122.823 41.5654Z" fill="white"/>
<path d="M133.52 27.3873L133.406 30.824V36.0056C134.795 35.3488 136.359 34.5194 137.956 34.5194C141.204 34.5194 143.807 37.5249 143.807 40.5901C143.807 45.2873 139.519 47.981 135.057 47.981C133.292 47.981 131.554 47.4635 129.984 46.6939V32.1708C129.984 30.1672 129.984 30.625 128.246 29.3644V28.9066L132.937 26.9561L133.514 27.3873H133.52ZM133.406 42.3084C133.406 45.0883 134.446 46.7801 136.567 46.7801C139.177 46.7801 140.217 44.4315 140.217 42.2553C140.217 39.1636 138.419 36.47 135.03 36.47C134.48 36.47 133.93 36.616 133.406 36.7553V42.3084Z" fill="white"/>
<path d="M152.723 40.4774C152.723 38.2747 152.696 36.2976 150.2 36.2976C148.75 36.2976 148.898 37.2994 148.898 38.3875V38.8718L146.462 39.0443C146.173 39.0443 145.737 39.0443 145.737 38.6993C145.737 37.6709 149.824 34.5195 152.541 34.5195C155.789 34.5195 156.131 37.9562 156.131 40.5371V44.0003C156.131 45.8314 156.48 45.8049 158.507 46.4617V47.092C157.433 47.3242 155.93 47.981 154.857 47.981C153.642 47.981 153.145 47.4635 152.884 46.4087C151.636 47.2977 150.481 47.981 148.857 47.981C147.005 47.981 145.73 46.5745 145.73 44.8031C145.73 44.2856 145.818 43.8013 145.992 43.2838L152.716 40.4774H152.723ZM149.535 42.9122C149.448 43.37 149.334 43.7747 149.334 44.1993C149.334 45.3471 149.857 46.3224 151.159 46.3224C151.823 46.3224 152.26 46.0902 152.723 45.7518V41.2536L149.535 42.9122Z" fill="white"/>
<path d="M164.921 27.3873L164.807 30.824V43.9737C164.807 46.3223 164.807 46.2626 167.008 46.8929V47.5829H159.184V46.8929C161.385 46.3223 161.385 46.2361 161.385 43.9737V32.1708C161.385 30.1672 161.385 30.625 159.647 29.3644V28.9066L164.337 26.9561L164.914 27.3873H164.921Z" fill="white"/>
<path d="M41.7435 7.51031C57.8952 7.51031 71.2018 19.5189 73.0472 34.9973C73.2015 33.7566 73.282 32.4894 73.282 31.2089C73.282 13.9724 59.1434 0 41.7099 0C24.2765 0 10.1445 13.9724 10.1445 31.2089C10.1445 32.569 10.2385 33.9026 10.4062 35.2162C12.1509 19.6316 25.5112 7.51031 41.7435 7.51031Z" fill="white"/>
<path d="M10.7968 47.8621C2.72428 34.0357 6.58943 16.6333 19.225 7.31836C18.0641 7.80932 16.9166 8.37325 15.7893 9.01017C0.691051 17.6285 -4.48262 36.7161 4.2341 51.6438C12.9508 66.5716 32.2565 71.6868 47.3547 63.0685C48.5424 62.3918 49.6698 61.6421 50.73 60.8393C36.2088 67.1355 18.9096 61.7615 10.7901 47.8621H10.7968Z" fill="white"/>
<path d="M61.6303 53.6598C53.5511 67.4929 36.3793 72.8801 21.8984 66.7233C22.9117 67.473 23.9786 68.1763 25.0993 68.8198C40.1975 77.4381 59.5031 72.3228 68.2199 57.3951C76.9366 42.4674 71.7629 23.3797 56.6647 14.7615C55.4769 14.0847 54.2557 13.4943 53.021 12.9834C65.7974 22.2718 69.7364 39.7737 61.6236 53.6665L61.6303 53.6598Z" fill="white"/>
</g>
<defs>
<clipPath id="clip0_936_1237">
<rect width="167" height="73" fill="white"/>
</clipPath>
</defs>
</svg>
